# xmcd
#
# Track frame offsets: 
#        150
#        22682
#        44499
#        58931
#        80729
#        98212
#        114803
#        134709
#        154283
#        172925
#        193030
#        215237
#        232624
#
# Disc length: 3404 seconds
#
# Revision: 0
# Processed by: cddbd v1.5.2PL0 Copyright (c) Steve Scherf et al.
# Submitted via: ExactAudioCopyFreeDBPlugin 1.0
#
DISCID=ae0d4a0d
DTITLE=Sem and The Friends - When My Heart Meets Your Soul
DYEAR=2002
DGENRE=Soul
TTITLE0=When my heart meets your soul
TTITLE1=You are my only love
TTITLE2=In the midnight hour
TTITLE3=Do what you wanna do when you whanna do it
TTITLE4=You are my only love (Remix)
TTITLE5=Clandestino
TTITLE6=E' arrivato lo zio Sem
TTITLE7=A chi venderemo l' anima
TTITLE8=Clandestino
TTITLE9=Scopriti
TTITLE10=Corpo a corpo
TTITLE11=A che gioco giochiamo
TTITLE12=Quando finiscono le parole
EXTD=
EXTT0=
EXTT1=
EXTT2=
EXTT3=
EXTT4=
EXTT5=
EXTT6=
EXTT7=
EXTT8=
EXTT9=
EXTT10=
EXTT11=
EXTT12=
PLAYORDER=
